
<svg width="64" height="64" viewBox="0 0 64 64" fill="none" xmlns="http://www.w3.org/2000/svg">
<rect width="64" height="64" rx="12" fill="url(#paint0_linear_42_2)"/>
<path d="M32.0003 12.6667C26.6669 12.6667 22.6669 16.6667 22.6669 22C22.6669 24.9167 23.8669 27.5833 25.8003 29.5333L32.0003 40L38.2003 29.5333C40.1336 27.5833 41.3336 24.9167 41.3336 22C41.3336 16.6667 37.3336 12.6667 32.0003 12.6667ZM32.0003 26.6667C30.1836 26.6667 28.6669 25.15 28.6669 23.3333C28.6669 21.5167 30.1836 20 32.0003 20C33.8169 20 35.3336 21.5167 35.3336 23.3333C35.3336 25.15 33.8169 26.6667 32.0003 26.6667Z" fill="#FFFFFF"/>
<path d="M18.6667 42.6667C18.6667 40.85 20.1833 39.3333 22 39.3333H42C43.8167 39.3333 45.3333 40.85 45.3333 42.6667V45.3333C45.3333 48.6 42.6 51.3333 39.3333 51.3333H24.6667C21.4 51.3333 18.6667 48.6 18.6667 45.3333V42.6667Z" fill="#FF4D4D"/>
<defs>
<linearGradient id="paint0_linear_42_2" x1="0" y1="0" x2="64" y2="64" gradientUnits="userSpaceOnUse">
<stop stop-color="#FF0000"/>
<stop offset="1" stop-color="#880000"/>
</linearGradient>
</defs>
</svg>
